<svg width="255" height="167" viewBox="0 0 255 167" fill="none" xmlns="http://www.w3.org/2000/svg">
<g clip-path="url(#clip0)">
<path d="M113.31 126.952L93.7754 145.918C87.395 150.736 79.7632 153.617 71.7907 154.216C63.8181 154.815 55.8414 153.109 48.8124 149.299C41.7833 145.489 35.9988 139.738 32.1489 132.731C28.299 125.723 26.5463 117.757 27.1001 109.781C27.6538 101.805 30.4906 94.1568 35.2718 87.7489C40.0531 81.3411 46.5769 76.4441 54.065 73.6423C61.5531 70.8405 69.6891 70.2522 77.5023 71.9476C85.3156 73.643 92.4761 77.5505 98.1294 83.2039L158.678 144.839C158.855 145.019 158.943 145.109 159.095 145.255C159.502 145.649 160.291 146.314 160.748 146.649C160.917 146.773 160.933 146.784 160.964 146.805C167.141 151.09 174.739 153.654 182.209 154.216C190.182 154.815 198.159 153.109 205.188 149.299C212.217 145.489 218.001 139.738 221.851 132.731C225.701 125.723 227.454 117.757 226.9 109.781C226.346 101.805 223.509 94.1568 218.728 87.7489C213.947 81.3411 207.423 76.4441 199.935 73.6423C192.447 70.8405 184.311 70.2522 176.498 71.9476C168.684 73.643 162.415 76.0609 156.762 81.7143L142.476 97.7857" stroke="#5794f3" stroke-width="10" stroke-linejoin="round"/>
<path fill="white" d="M11.68 41.408C11.68 38.912 12.064 36.704 12.832 34.784C13.632 32.864 14.704 31.264 16.048 29.984C17.424 28.672 19.024 27.68 20.848 27.008C22.704 26.336 24.704 26 26.848 26C28.992 26 30.976 26.336 32.8 27.008C34.656 27.68 36.272 28.672 37.648 29.984C39.024 31.264 40.096 32.864 40.864 34.784C41.664 36.704 42.064 38.912 42.064 41.408C42.064 43.904 41.68 46.128 40.912 48.08C40.144 50 39.072 51.616 37.696 52.928C36.352 54.208 34.752 55.184 32.896 55.856C31.04 56.528 29.024 56.864 26.848 56.864C24.672 56.864 22.656 56.528 20.8 55.856C18.944 55.152 17.344 54.144 16 52.832C14.656 51.52 13.6 49.904 12.832 47.984C12.064 46.064 11.68 43.872 11.68 41.408ZM20.32 41.408C20.32 44.32 20.912 46.496 22.096 47.936C23.28 49.376 24.864 50.096 26.848 50.096C28.864 50.096 30.464 49.376 31.648 47.936C32.832 46.496 33.424 44.32 33.424 41.408C33.424 38.528 32.832 36.368 31.648 34.928C30.496 33.488 28.912 32.768 26.896 32.768C24.912 32.768 23.312 33.488 22.096 34.928C20.912 36.336 20.32 38.496 20.32 41.408ZM66.8414 48.848C66.4254 49.2 65.8814 49.488 65.2094 49.712C64.5694 49.904 63.8174 50 62.9534 50C61.8014 50 60.8414 49.856 60.0734 49.568C59.3374 49.28 58.8574 48.784 58.6334 48.08C57.7374 45.264 57.0014 42.992 56.4254 41.264C55.8494 39.504 55.4014 37.968 55.0814 36.656H54.8414C54.7454 38.544 54.6654 40.272 54.6014 41.84C54.5694 43.376 54.5374 44.88 54.5054 46.352C54.5054 47.824 54.4734 49.312 54.4094 50.816C54.3774 52.32 54.3134 53.984 54.2174 55.808C53.8014 55.968 53.2574 56.096 52.5854 56.192C51.9134 56.32 51.2414 56.384 50.5694 56.384C49.1614 56.384 48.0574 56.16 47.2574 55.712C46.4894 55.264 46.1054 54.448 46.1054 53.264L47.4974 28.784C47.7534 28.368 48.3134 27.92 49.1774 27.44C50.0414 26.96 51.2574 26.72 52.8254 26.72C54.5214 26.72 55.8494 26.992 56.8094 27.536C57.7694 28.048 58.4734 28.896 58.9214 30.08C59.2094 30.848 59.5134 31.728 59.8334 32.72C60.1854 33.712 60.5214 34.736 60.8414 35.792C61.1934 36.848 61.5294 37.904 61.8494 38.96C62.1694 39.984 62.4574 40.912 62.7134 41.744H62.9534C63.7214 39.056 64.4894 36.464 65.2574 33.968C66.0254 31.44 66.7294 29.328 67.3694 27.632C67.8494 27.376 68.4574 27.168 69.1934 27.008C69.9614 26.816 70.8094 26.72 71.7374 26.72C73.3054 26.72 74.5854 26.96 75.5774 27.44C76.5694 27.888 77.1454 28.544 77.3054 29.408C77.4334 30.048 77.5614 31.04 77.6894 32.384C77.8494 33.696 78.0094 35.184 78.1694 36.848C78.3294 38.512 78.4894 40.272 78.6494 42.128C78.8094 43.984 78.9534 45.776 79.0814 47.504C79.2414 49.2 79.3694 50.768 79.4654 52.208C79.5614 53.616 79.6254 54.704 79.6574 55.472C79.1134 55.792 78.5374 56.016 77.9294 56.144C77.3534 56.304 76.6014 56.384 75.6734 56.384C74.4574 56.384 73.4334 56.176 72.6014 55.76C71.7694 55.344 71.3214 54.528 71.2574 53.312C71.0654 49.824 70.9374 46.688 70.8734 43.904C70.8414 41.12 70.7774 38.784 70.6814 36.896H70.4414C70.1214 38.144 69.6574 39.712 69.0494 41.6C68.4414 43.488 67.7054 45.904 66.8414 48.848ZM111.331 54.992C110.883 55.44 110.227 55.776 109.363 56C108.531 56.256 107.523 56.384 106.339 56.384C105.155 56.384 104.035 56.208 102.979 55.856C101.923 55.504 101.059 54.656 100.387 53.312L95.6354 43.616C95.1554 42.624 94.7234 41.696 94.3394 40.832C93.9554 39.936 93.5394 38.912 93.0914 37.76L92.8034 37.808C92.9314 39.536 92.9954 41.296 92.9954 43.088C93.0274 44.88 93.0434 46.64 93.0434 48.368V55.808C92.6914 55.904 92.1474 56 91.4114 56.096C90.7074 56.192 90.0034 56.24 89.2994 56.24C88.5954 56.24 87.9714 56.192 87.4274 56.096C86.8834 56 86.4354 55.808 86.0834 55.52C85.7314 55.232 85.4594 54.848 85.2674 54.368C85.0754 53.856 84.9794 53.2 84.9794 52.4V28.4C85.4274 27.76 86.1154 27.28 87.0434 26.96C87.9714 26.64 88.9634 26.48 90.0194 26.48C91.2034 26.48 92.3234 26.672 93.3794 27.056C94.4674 27.408 95.3314 28.24 95.9714 29.552L100.771 39.248C101.251 40.24 101.683 41.184 102.067 42.08C102.451 42.944 102.867 43.952 103.315 45.104L103.555 45.056C103.427 43.328 103.347 41.6 103.315 39.872C103.283 38.144 103.267 36.416 103.267 34.688V26.912C103.619 26.816 104.147 26.72 104.851 26.624C105.587 26.528 106.307 26.48 107.011 26.48C108.419 26.48 109.491 26.736 110.227 27.248C110.963 27.728 111.331 28.752 111.331 30.32V54.992ZM125.958 55.808C125.606 55.904 125.046 56 124.278 56.096C123.542 56.192 122.806 56.24 122.07 56.24C121.334 56.24 120.678 56.176 120.102 56.048C119.558 55.952 119.094 55.76 118.71 55.472C118.326 55.184 118.038 54.784 117.846 54.272C117.654 53.76 117.558 53.088 117.558 52.256V26.912C117.91 26.848 118.47 26.768 119.238 26.672C120.006 26.544 120.742 26.48 121.446 26.48C122.182 26.48 122.822 26.544 123.366 26.672C123.942 26.768 124.422 26.96 124.806 27.248C125.19 27.536 125.478 27.936 125.67 28.448C125.862 28.96 125.958 29.632 125.958 30.464V55.808ZM143.079 40.4C144.423 40.4 145.447 40.096 146.151 39.488C146.887 38.848 147.255 37.888 147.255 36.608C147.255 35.392 146.871 34.464 146.103 33.824C145.367 33.152 144.279 32.816 142.839 32.816C142.327 32.816 141.895 32.832 141.543 32.864C141.223 32.864 140.887 32.896 140.535 32.96V40.4H143.079ZM140.583 55.808C140.231 55.904 139.671 56 138.903 56.096C138.167 56.192 137.431 56.24 136.695 56.24C135.959 56.24 135.303 56.176 134.727 56.048C134.183 55.952 133.719 55.76 133.335 55.472C132.951 55.184 132.663 54.784 132.471 54.272C132.279 53.76 132.183 53.088 132.183 52.256V29.648C132.183 28.976 132.359 28.464 132.711 28.112C133.095 27.728 133.607 27.424 134.247 27.2C135.335 26.816 136.567 26.544 137.943 26.384C139.351 26.192 140.759 26.096 142.167 26.096C146.583 26.096 149.959 27.04 152.295 28.928C154.631 30.816 155.799 33.376 155.799 36.608C155.799 38.176 155.543 39.6 155.031 40.88C154.551 42.128 153.815 43.216 152.823 44.144C151.863 45.04 150.631 45.744 149.127 46.256C147.655 46.736 145.943 46.976 143.991 46.976H140.583V55.808ZM158.633 41.408C158.633 38.912 159.017 36.704 159.785 34.784C160.585 32.864 161.657 31.264 163.001 29.984C164.377 28.672 165.977 27.68 167.801 27.008C169.657 26.336 171.657 26 173.801 26C175.945 26 177.929 26.336 179.753 27.008C181.609 27.68 183.225 28.672 184.601 29.984C185.977 31.264 187.049 32.864 187.817 34.784C188.617 36.704 189.017 38.912 189.017 41.408C189.017 43.904 188.633 46.128 187.865 48.08C187.097 50 186.025 51.616 184.649 52.928C183.305 54.208 181.705 55.184 179.849 55.856C177.993 56.528 175.977 56.864 173.801 56.864C171.625 56.864 169.609 56.528 167.753 55.856C165.897 55.152 164.297 54.144 162.953 52.832C161.609 51.52 160.553 49.904 159.785 47.984C159.017 46.064 158.633 43.872 158.633 41.408ZM167.273 41.408C167.273 44.32 167.865 46.496 169.049 47.936C170.233 49.376 171.817 50.096 173.801 50.096C175.817 50.096 177.417 49.376 178.601 47.936C179.785 46.496 180.377 44.32 180.377 41.408C180.377 38.528 179.785 36.368 178.601 34.928C177.449 33.488 175.865 32.768 173.849 32.768C171.865 32.768 170.265 33.488 169.049 34.928C167.865 36.336 167.273 38.496 167.273 41.408ZM202.079 44.432C200.671 43.952 199.391 43.472 198.239 42.992C197.087 42.48 196.095 41.872 195.263 41.168C194.431 40.464 193.775 39.632 193.295 38.672C192.847 37.68 192.623 36.48 192.623 35.072C192.623 32.352 193.663 30.176 195.743 28.544C197.855 26.912 200.799 26.096 204.575 26.096C205.951 26.096 207.231 26.192 208.415 26.384C209.599 26.576 210.607 26.88 211.439 27.296C212.303 27.68 212.975 28.192 213.455 28.832C213.935 29.44 214.175 30.16 214.175 30.992C214.175 31.824 213.983 32.544 213.599 33.152C213.215 33.728 212.751 34.224 212.207 34.64C211.503 34.192 210.559 33.808 209.375 33.488C208.191 33.136 206.895 32.96 205.487 32.96C204.047 32.96 202.991 33.168 202.319 33.584C201.647 33.968 201.311 34.464 201.311 35.072C201.311 35.552 201.519 35.952 201.935 36.272C202.351 36.56 202.975 36.832 203.807 37.088L206.351 37.904C209.359 38.864 211.663 40.096 213.263 41.6C214.895 43.072 215.711 45.088 215.711 47.648C215.711 50.368 214.639 52.576 212.495 54.272C210.351 55.936 207.199 56.768 203.039 56.768C201.567 56.768 200.191 56.64 198.911 56.384C197.663 56.16 196.559 55.824 195.599 55.376C194.671 54.896 193.935 54.32 193.391 53.648C192.879 52.944 192.623 52.144 192.623 51.248C192.623 50.32 192.895 49.536 193.439 48.896C193.983 48.224 194.575 47.712 195.215 47.36C196.111 48.064 197.199 48.672 198.479 49.184C199.791 49.696 201.215 49.952 202.751 49.952C204.319 49.952 205.423 49.712 206.063 49.232C206.703 48.752 207.023 48.192 207.023 47.552C207.023 46.912 206.767 46.432 206.255 46.112C205.743 45.76 205.023 45.424 204.095 45.104L202.079 44.432ZM218.307 33.632C218.083 33.28 217.875 32.8 217.683 32.192C217.491 31.584 217.395 30.944 217.395 30.272C217.395 29.024 217.667 28.128 218.211 27.584C218.787 27.04 219.523 26.768 220.419 26.768H241.347C241.571 27.12 241.779 27.6 241.971 28.208C242.163 28.816 242.259 29.456 242.259 30.128C242.259 31.376 241.971 32.272 241.395 32.816C240.851 33.36 240.131 33.632 239.235 33.632H233.907V55.808C233.555 55.904 232.995 56 232.227 56.096C231.491 56.192 230.755 56.24 230.019 56.24C229.283 56.24 228.627 56.176 228.051 56.048C227.507 55.952 227.043 55.76 226.659 55.472C226.275 55.184 225.987 54.784 225.795 54.272C225.603 53.76 225.507 53.088 225.507 52.256V33.632H218.307Z"/>
</g>
<defs>
<clipPath id="clip0">
<rect width="255" height="167" fill="white"/>
</clipPath>
</defs>
</svg>
